<svg width="16" height="16" viewBox="0 0 16 16" fill="none" xmlns="http://www.w3.org/2000/svg">
<path d="M7.86196 9.68249L8.00338 9.82391L8.1448 9.68249L14.1237 3.70356L14.1238 3.70354C14.3867 3.4405 14.8155 3.44045 15.0786 3.70355C15.0786 3.70355 15.0786 3.70356 15.0786 3.70356L15.6028 4.2279L15.6029 4.22798C15.7301 4.35506 15.8 4.52379 15.8 4.70543C15.8 4.88723 15.7301 5.05591 15.6029 5.18282L15.6028 5.18294L8.4831 12.3031L8.48304 12.3031C8.35577 12.4305 8.18657 12.5002 8.00354 12.4997L8.00244 12.4997C7.82057 12.5002 7.65108 12.4304 7.52385 12.3031L7.5238 12.3031L0.397163 5.1763L0.397049 5.17619C0.269925 5.04926 0.2 4.88058 0.2 4.69892C0.2 4.51719 0.269977 4.3483 0.396994 4.22159L0.397196 4.22138L0.921424 3.69689L0.921445 3.69687C1.04832 3.5699 1.21701 3.50003 1.39889 3.50003C1.58069 3.50003 1.74943 3.56992 1.87597 3.69676L1.87614 3.69693L7.86196 9.68249Z" fill="white" stroke="#2C2C2C" stroke-width="0.4"/>
</svg>
