<svg width="16" height="16" viewBox="0 0 16 16" fill="none" xmlns="http://www.w3.org/2000/svg">
<path fill-rule="evenodd" clip-rule="evenodd" d="M9.05442 1.88095C8.56067 1.15101 7.43999 1.15101 6.94624 1.88095L4.45331 5.56615L2.54783 4.52289C1.59321 4.00021 0.445416 4.81932 0.704004 5.83869L1.99854 10.9418C2.05683 11.1716 2.27273 11.3335 2.52092 11.3335H13.4797C13.728 11.3335 13.9439 11.1716 14.0022 10.9418L15.2966 5.83869C15.5553 4.81931 14.4075 4.00022 13.4528 4.52289L11.5473 5.56615L9.05442 1.88095ZM8.15088 2.43534C8.08041 2.33106 7.92025 2.33106 7.84977 2.43534L5.08015 6.52955C4.92512 6.75873 4.6087 6.83193 4.36054 6.69608L2.01216 5.41033C1.87578 5.33566 1.71181 5.45268 1.74875 5.5983L2.94395 10.3098H13.0567L14.2519 5.5983C14.2888 5.45268 14.1249 5.33566 13.9885 5.41033L11.6401 6.69608C11.3919 6.83193 11.0756 6.75873 10.9205 6.52955L8.15088 2.43534Z" fill="#F2C03C"/>
<path d="M3.18313 12.6665C2.89807 12.6665 2.66699 12.965 2.66699 13.3332C2.66699 13.7013 2.89807 13.9998 3.18313 13.9998H12.8175C13.1026 13.9998 13.3337 13.7013 13.3337 13.3332C13.3337 12.965 13.1026 12.6665 12.8175 12.6665H3.18313Z" fill="#F2C03C"/>
</svg>
