<svg width="8" height="20" viewBox="0 0 8 20" fill="none" xmlns="http://www.w3.org/2000/svg">
<path d="M5.41421 2.58579C6.19526 3.36683 6.19526 4.63317 5.41421 5.41422C4.63317 6.19526 3.36683 6.19526 2.58579 5.41422C1.80474 4.63317 1.80474 3.36683 2.58579 2.58579C3.3668 1.80474 4.63314 1.80474 5.41421 2.58579Z" fill="white"/>
<path d="M5.41421 8.58579C6.19526 9.36683 6.19526 10.6332 5.41421 11.4142C4.63317 12.1953 3.36683 12.1953 2.58579 11.4142C1.80474 10.6332 1.80474 9.36683 2.58579 8.58579C3.3668 7.80474 4.63314 7.80474 5.41421 8.58579Z" fill="white"/>
<path d="M5.41421 14.5858C6.19526 15.3668 6.19526 16.6332 5.41421 17.4142C4.63317 18.1953 3.36683 18.1953 2.58579 17.4142C1.80474 16.6332 1.80474 15.3668 2.58579 14.5858C3.3668 13.8047 4.63314 13.8047 5.41421 14.5858Z" fill="white"/>
</svg>
