<svg width="24" height="24" viewBox="0 0 24 24" fill="none" xmlns="http://www.w3.org/2000/svg">
<path d="M13.225 12.9779V13.34L13.4811 13.0839L16.0055 10.5595C16.4839 10.0811 17.2595 10.0811 17.7379 10.5595C18.2163 11.0379 18.2163 11.8135 17.7379 12.2919L12.8662 17.1636L12.9723 17.2697L12.8662 17.1636C12.627 17.4028 12.3137 17.5224 12 17.5224C11.6862 17.5224 11.3731 17.4028 11.1338 17.1636L6.2621 12.2919C5.7837 11.8135 5.7837 11.0379 6.2621 10.5595C6.7405 10.0811 7.51612 10.0811 7.99452 10.5595L10.5189 13.0839L10.775 13.34V12.9779V2.37549C10.775 1.69894 11.3235 1.15049 12 1.15049C12.6765 1.15049 13.225 1.69894 13.225 2.37549V12.9779ZM22.85 21.6255C22.85 22.302 22.3015 22.8505 21.625 22.8505H2.375C1.69846 22.8505 1.15 22.302 1.15 21.6255C1.15 20.9489 1.69846 20.4005 2.375 20.4005H21.625C22.3015 20.4005 22.85 20.9489 22.85 21.6255Z" fill="#B3B3B3" stroke="#010101" stroke-width="0.3"/>
</svg>
