<svg width="24" height="24" viewBox="0 0 24 24" fill="none" xmlns="http://www.w3.org/2000/svg">
<path d="M4.16397 16.3488C3.97197 16.3488 3.78034 16.2757 3.63372 16.1291C3.34084 15.8362 3.34084 15.3614 3.63372 15.0686L15.354 3.34832C15.6465 3.05544 16.1216 3.05544 16.4145 3.34832C16.7073 3.64119 16.7073 4.11594 16.4145 4.40882L4.69422 16.1291C4.54797 16.2753 4.35597 16.3488 4.16397 16.3488Z" fill="#B3B3B3"/>
<path d="M3.00661 21.7499C2.95448 21.7499 2.90161 21.7443 2.84873 21.733C2.44373 21.646 2.18573 21.2474 2.27273 20.8424L3.43148 15.4413C3.51848 15.0363 3.91898 14.779 4.32211 14.8653C4.72711 14.9523 4.98511 15.3509 4.89811 15.7559L3.73936 21.157C3.66398 21.5092 3.35273 21.7499 3.00661 21.7499Z" fill="#B3B3B3"/>
<path d="M8.40713 20.5914C8.21513 20.5914 8.02351 20.5182 7.87688 20.3716C7.58401 20.0787 7.58401 19.604 7.87688 19.3111L19.5971 7.59124C19.8896 7.29836 20.3648 7.29836 20.6576 7.59124C20.9505 7.88411 20.9505 8.35886 20.6576 8.65174L8.93776 20.3716C8.79113 20.5182 8.59913 20.5914 8.40713 20.5914Z" fill="#B3B3B3"/>
<path d="M3.0044 21.7501C2.65827 21.7501 2.3474 21.5093 2.27165 21.1572C2.18502 20.7522 2.44265 20.3536 2.84765 20.2666L8.24877 19.1078C8.65415 19.022 9.05277 19.2792 9.1394 19.6838C9.22602 20.0888 8.9684 20.4875 8.5634 20.5745L3.16227 21.7332C3.1094 21.7448 3.05652 21.7501 3.0044 21.7501Z" fill="#B3B3B3"/>
<path d="M18.006 10.9923C17.814 10.9923 17.622 10.9192 17.4757 10.7725L13.2333 6.53016C12.9405 6.23728 12.9405 5.76253 13.2333 5.46966C13.5258 5.17678 14.0013 5.17678 14.2938 5.46966L18.5362 9.71203C18.8291 10.0049 18.8291 10.4797 18.5362 10.7725C18.39 10.9192 18.198 10.9923 18.006 10.9923Z" fill="#B3B3B3"/>
<path d="M20.1268 8.87147C19.9348 8.87147 19.7428 8.79834 19.5962 8.65172C19.3033 8.35884 19.3033 7.88409 19.5962 7.59084C20.0136 7.17347 20.2434 6.60834 20.2434 6.00009C20.2434 5.39184 20.0136 4.82672 19.5962 4.40934C19.1784 3.99159 18.6133 3.76172 18.0051 3.76172C17.3968 3.76172 16.8317 3.99159 16.4143 4.40934C16.1218 4.70222 15.6471 4.70259 15.3534 4.40934C15.0606 4.11647 15.0606 3.64172 15.3534 3.34847C16.0539 2.64759 16.9956 2.26172 18.0051 2.26172C19.0142 2.26172 19.9562 2.64759 20.6567 3.34847C21.3576 4.04897 21.7434 4.99059 21.7434 6.00009C21.7434 7.00959 21.3576 7.95122 20.6567 8.65172C20.5108 8.79797 20.3188 8.87147 20.1268 8.87147Z" fill="#B3B3B3"/>
</svg>
