<svg width="16" height="12" viewBox="0 0 16 12" fill="none" xmlns="http://www.w3.org/2000/svg">
<path fill-rule="evenodd" clip-rule="evenodd" d="M8.8775 2.24988C9.03245 1.81073 9.3198 1.43046 9.69995 1.16148C10.0801 0.892494 10.5343 0.748047 11 0.748047C11.4657 0.748047 11.9199 0.892494 12.3001 1.16148C12.6802 1.43046 12.9675 1.81073 13.1225 2.24988H14.75C14.9489 2.24988 15.1397 2.3289 15.2803 2.46955C15.421 2.61021 15.5 2.80097 15.5 2.99988C15.5 3.1988 15.421 3.38956 15.2803 3.53021C15.1397 3.67087 14.9489 3.74988 14.75 3.74988H13.1225C12.9675 4.18903 12.6802 4.56931 12.3001 4.83829C11.9199 5.10728 11.4657 5.25172 11 5.25172C10.5343 5.25172 10.0801 5.10728 9.69995 4.83829C9.3198 4.56931 9.03245 4.18903 8.8775 3.74988H1.25C1.05109 3.74988 0.860322 3.67087 0.71967 3.53021C0.579018 3.38956 0.5 3.1988 0.5 2.99988C0.5 2.80097 0.579018 2.61021 0.71967 2.46955C0.860322 2.3289 1.05109 2.24988 1.25 2.24988H8.8775ZM2.8775 8.24989C3.03245 7.81074 3.3198 7.43046 3.69995 7.16148C4.0801 6.89249 4.53432 6.74805 5 6.74805C5.46568 6.74805 5.9199 6.89249 6.30005 7.16148C6.6802 7.43046 6.96755 7.81074 7.1225 8.24989H14.75C14.9489 8.24989 15.1397 8.3289 15.2803 8.46955C15.421 8.61021 15.5 8.80097 15.5 8.99989C15.5 9.1988 15.421 9.38956 15.2803 9.53022C15.1397 9.67087 14.9489 9.74989 14.75 9.74989H7.1225C6.96755 10.189 6.6802 10.5693 6.30005 10.8383C5.9199 11.1073 5.46568 11.2517 5 11.2517C4.53432 11.2517 4.0801 11.1073 3.69995 10.8383C3.3198 10.5693 3.03245 10.189 2.8775 9.74989H1.25C1.05109 9.74989 0.860322 9.67087 0.71967 9.53022C0.579018 9.38956 0.5 9.1988 0.5 8.99989C0.5 8.80097 0.579018 8.61021 0.71967 8.46955C0.860322 8.3289 1.05109 8.24989 1.25 8.24989H2.8775ZM11 3.74988C11.1989 3.74988 11.3897 3.67087 11.5303 3.53021C11.671 3.38956 11.75 3.1988 11.75 2.99988C11.75 2.80097 11.671 2.61021 11.5303 2.46955C11.3897 2.3289 11.1989 2.24988 11 2.24988C10.8011 2.24988 10.6103 2.3289 10.4697 2.46955C10.329 2.61021 10.25 2.80097 10.25 2.99988C10.25 3.1988 10.329 3.38956 10.4697 3.53021C10.6103 3.67087 10.8011 3.74988 11 3.74988ZM5 9.74989C5.19891 9.74989 5.38968 9.67087 5.53033 9.53022C5.67098 9.38956 5.75 9.1988 5.75 8.99989C5.75 8.80097 5.67098 8.61021 5.53033 8.46955C5.38968 8.3289 5.19891 8.24989 5 8.24989C4.80109 8.24989 4.61032 8.3289 4.46967 8.46955C4.32902 8.61021 4.25 8.80097 4.25 8.99989C4.25 9.1988 4.32902 9.38956 4.46967 9.53022C4.61032 9.67087 4.80109 9.74989 5 9.74989Z" fill="white"/>
</svg>
