<svg width="16" height="16" viewBox="0 0 16 16" fill="none" xmlns="http://www.w3.org/2000/svg">
<path d="M5.05724 2.0759L5.05736 2.0761L7.83706 6.9506C7.83712 6.9507 7.83718 6.9508 7.83724 6.9509C7.86831 7.00478 7.88447 7.06597 7.88403 7.12818C7.8836 7.19049 7.86654 7.25157 7.83461 7.30508C7.80267 7.3586 7.75703 7.40262 7.70239 7.4326C7.64822 7.46232 7.58715 7.47717 7.52539 7.47564L1.98088 7.47564C1.98084 7.47564 1.9808 7.47564 1.98076 7.47564H1.98049V7.37564C1.93652 7.37582 1.89328 7.36439 1.85514 7.34252C1.817 7.32065 1.78529 7.28911 1.76323 7.25107C1.74117 7.21304 1.72954 7.16986 1.72949 7.12589C1.72945 7.08192 1.741 7.03872 1.76299 7.00064L5.05724 2.0759ZM5.05724 2.0759C5.02659 2.02245 4.98237 1.97804 4.92906 1.94715C4.87575 1.91626 4.81523 1.9 4.75361 1.9C4.692 1.9 4.63148 1.91626 4.57816 1.94715C4.52485 1.97804 4.48064 2.02245 4.44999 2.0759L4.44982 2.07619L1.67638 6.95064C1.67633 6.95074 1.67627 6.95083 1.67622 6.95093L5.05724 2.0759ZM6.92481 6.77564H2.58098L4.75058 2.95307L6.92481 6.77564Z" fill="#B3B3B3" stroke="#B3B3B3" stroke-width="0.2"/>
<path d="M10 7.35H13C13.2917 7.35 13.5715 7.23411 13.7778 7.02782C13.9841 6.82153 14.1 6.54174 14.1 6.25V3.25C14.1 2.95826 13.9841 2.67847 13.7778 2.47218C13.5715 2.26589 13.2917 2.15 13 2.15H10C9.70826 2.15 9.42847 2.26589 9.22218 2.47218C9.01589 2.67847 8.9 2.95826 8.9 3.25V6.25C8.9 6.54174 9.01589 6.82153 9.22218 7.02782C9.42847 7.23411 9.70826 7.35 10 7.35ZM9.6 3.25C9.6 3.14391 9.64214 3.04217 9.71716 2.96716C9.79217 2.89214 9.89391 2.85 10 2.85H13C13.1061 2.85 13.2078 2.89214 13.2828 2.96716C13.3579 3.04217 13.4 3.14391 13.4 3.25V6.25C13.4 6.35609 13.3579 6.45783 13.2828 6.53284C13.2078 6.60786 13.1061 6.65 13 6.65H10C9.89391 6.65 9.79217 6.60786 9.71716 6.53284C9.64214 6.45783 9.6 6.35609 9.6 6.25V3.25Z" fill="#B3B3B3" stroke="#B3B3B3" stroke-width="0.2"/>
<path d="M14.2473 10.5029L14.2475 10.5032C14.4446 10.7017 14.5552 10.9701 14.5552 11.2499C14.5552 11.5296 14.4446 11.798 14.2475 11.9966L14.2473 11.9968L12.2473 13.9968C12.2473 13.9968 12.2473 13.9968 12.2473 13.9968C12.1492 14.0949 12.0327 14.1728 11.9046 14.2258C11.7764 14.2789 11.639 14.3063 11.5003 14.3063C11.3616 14.3063 11.2242 14.2789 11.096 14.2258C10.9679 14.1728 10.8514 14.0949 10.7533 13.9968C10.7533 13.9968 10.7533 13.9968 10.7533 13.9968L8.75334 11.9968L8.75316 11.9967C8.55575 11.7982 8.44492 11.5298 8.44492 11.2499C8.44492 10.97 8.55575 10.7015 8.75316 10.5031L8.75334 10.5029L10.7533 8.50291L10.7533 8.5029L10.824 8.57362C10.9128 8.4848 11.0183 8.41434 11.1343 8.36627C11.2503 8.3182 11.3747 8.29346 11.5003 8.29346C11.6259 8.29346 11.7503 8.3182 11.8663 8.36627C11.9823 8.41434 12.0877 8.4848 12.1765 8.57362L14.2473 10.5029ZM14.2473 10.5029L12.2473 8.50291L14.2473 10.5029ZM9.24851 11.5029L9.24834 11.5027C9.2152 11.4697 9.1889 11.4305 9.17095 11.3874C9.153 11.3442 9.14376 11.2979 9.14376 11.2511C9.14376 11.2044 9.153 11.1581 9.17095 11.1149C9.1889 11.0717 9.2152 11.0325 9.24834 10.9995L9.24851 10.9993L11.2478 9.00004C11.3157 8.93495 11.4062 8.89861 11.5003 8.89861C11.5944 8.89861 11.6849 8.93495 11.7528 9.00004L13.7521 10.9993C13.7521 10.9993 13.7521 10.9993 13.7521 10.9993C13.8188 11.0661 13.8563 11.1567 13.8563 11.2511C13.8563 11.3455 13.8188 11.4361 13.7521 11.5029C13.7521 11.5029 13.7521 11.5029 13.7521 11.5029L11.7523 13.5027C11.7523 13.5027 11.7523 13.5027 11.7522 13.5028C11.6853 13.5693 11.5947 13.6066 11.5003 13.6066C11.4059 13.6066 11.3153 13.5693 11.2484 13.5028C11.2483 13.5027 11.2483 13.5027 11.2483 13.5027L9.24851 11.5029Z" fill="#B3B3B3" stroke="#B3B3B3" stroke-width="0.2"/>
<path d="M4.75 8.4C4.18632 8.4 3.63531 8.56715 3.16663 8.88031C2.69795 9.19347 2.33265 9.63858 2.11694 10.1594C1.90123 10.6801 1.8448 11.2532 1.95476 11.806C2.06473 12.3589 2.33617 12.8667 2.73475 13.2653C3.13333 13.6638 3.64115 13.9353 4.19399 14.0452C4.74684 14.1552 5.31988 14.0988 5.84065 13.8831C6.36142 13.6673 6.80653 13.3021 7.11969 12.8334C7.43285 12.3647 7.6 11.8137 7.6 11.25C7.6 10.8757 7.52628 10.5051 7.38306 10.1594C7.23983 9.81357 7.0299 9.49939 6.76526 9.23475C6.50061 8.9701 6.18643 8.76017 5.84065 8.61694C5.49487 8.47372 5.12427 8.4 4.75 8.4ZM4.75 13.4C4.32477 13.4 3.90909 13.2739 3.55553 13.0377C3.20196 12.8014 2.92639 12.4656 2.76366 12.0728C2.60093 11.6799 2.55835 11.2476 2.64131 10.8306C2.72427 10.4135 2.92904 10.0304 3.22972 9.72972C3.5304 9.42904 3.9135 9.22427 4.33056 9.14131C4.74762 9.05835 5.17991 9.10093 5.57277 9.26366C5.96563 9.42639 6.30142 9.70196 6.53766 10.0555C6.77391 10.4091 6.9 10.8248 6.9 11.25C6.9 11.8202 6.67348 12.3671 6.27028 12.7703C5.86708 13.1735 5.32022 13.4 4.75 13.4Z" fill="#B3B3B3" stroke="#B3B3B3" stroke-width="0.2"/>
</svg>
