<svg width="18" height="18" viewBox="0 0 18 18" fill="none" xmlns="http://www.w3.org/2000/svg">
<path d="M15.8906 9.70312H11.8125C10.6494 9.70312 9.70312 10.6494 9.70312 11.8125V15.8906C9.70312 17.0537 10.6494 18 11.8125 18H15.8906C17.0537 18 18 17.0537 18 15.8906V11.8125C18 10.6494 17.0537 9.70312 15.8906 9.70312ZM16.5938 15.8906C16.5938 16.2783 16.2783 16.5938 15.8906 16.5938H11.8125C11.4248 16.5938 11.1094 16.2783 11.1094 15.8906V11.8125C11.1094 11.4248 11.4248 11.1094 11.8125 11.1094H15.8906C16.2783 11.1094 16.5938 11.4248 16.5938 11.8125V15.8906ZM6.1875 9.70312H2.10938C0.946266 9.70312 0 10.6494 0 11.8125V15.8906C0 17.0537 0.946266 18 2.10938 18H6.1875C7.35061 18 8.29688 17.0537 8.29688 15.8906V11.8125C8.29688 10.6494 7.35061 9.70312 6.1875 9.70312ZM6.89062 15.8906C6.89062 16.2783 6.5752 16.5938 6.1875 16.5938H2.10938C1.72167 16.5938 1.40625 16.2783 1.40625 15.8906V11.8125C1.40625 11.4248 1.72167 11.1094 2.10938 11.1094H6.1875C6.5752 11.1094 6.89062 11.4248 6.89062 11.8125V15.8906ZM6.1875 0H2.10938C0.946266 0 0 0.946266 0 2.10938V6.1875C0 7.35061 0.946266 8.29688 2.10938 8.29688H6.1875C7.35061 8.29688 8.29688 7.35061 8.29688 6.1875V2.10938C8.29688 0.946266 7.35061 0 6.1875 0ZM6.89062 6.1875C6.89062 6.5752 6.5752 6.89062 6.1875 6.89062H2.10938C1.72167 6.89062 1.40625 6.5752 1.40625 6.1875V2.10938C1.40625 1.72167 1.72167 1.40625 2.10938 1.40625H6.1875C6.5752 1.40625 6.89062 1.72167 6.89062 2.10938V6.1875ZM15.8906 0H11.8125C10.6494 0 9.70312 0.946266 9.70312 2.10938V6.1875C9.70312 7.35061 10.6494 8.29688 11.8125 8.29688H15.8906C17.0537 8.29688 18 7.35061 18 6.1875V2.10938C18 0.946266 17.0537 0 15.8906 0ZM16.5938 6.1875C16.5938 6.5752 16.2783 6.89062 15.8906 6.89062H11.8125C11.4248 6.89062 11.1094 6.5752 11.1094 6.1875V2.10938C11.1094 1.72167 11.4248 1.40625 11.8125 1.40625H15.8906C16.2783 1.40625 16.5938 1.72167 16.5938 2.10938V6.1875Z" fill="white"/>
</svg>
