<svg width="19" height="19" viewBox="0 0 19 19" fill="none" xmlns="http://www.w3.org/2000/svg">
<path d="M2.40548 19H15.9053C16.5021 19 17.0744 18.7636 17.4963 18.3431C17.9183 17.9223 18.1553 17.3518 18.1553 16.757V7.7465C18.1565 7.07359 17.8536 6.43579 17.3304 6.01052L10.5803 0.50499C10.1776 0.178396 9.67441 0 9.15517 0C8.63614 0 8.13292 0.178391 7.73029 0.50499L0.980145 6.01052C0.456958 6.43579 0.153859 7.07359 0.155278 7.7465V16.757C0.155278 17.3518 0.392233 17.9223 0.814279 18.3431C1.23612 18.7636 1.80841 19 2.40528 19H2.40548ZM6.90543 17.5047L6.90523 13.7664C6.90523 13.568 6.98441 13.378 7.12496 13.2377C7.2657 13.0976 7.45634 13.0188 7.65529 13.0188H10.6553C10.8541 13.0188 11.0449 13.0976 11.1856 13.2377C11.3262 13.378 11.4052 13.568 11.4052 13.7664V17.5045L6.90543 17.5047ZM1.65531 7.74655C1.65531 7.52237 1.75627 7.30984 1.93047 7.16796L8.68062 1.66243C8.81463 1.5531 8.9825 1.4933 9.15571 1.4933C9.32893 1.4933 9.49679 1.5531 9.63081 1.66243L16.381 7.16796C16.5552 7.30984 16.6561 7.52238 16.6563 7.74655V16.7571C16.6563 16.9554 16.5771 17.1454 16.4366 17.2857C16.2958 17.4259 16.1052 17.5046 15.9063 17.5046H12.9056V13.7664C12.9056 13.1717 12.6685 12.6011 12.2466 12.1804C11.8246 11.7598 11.2523 11.5234 10.6556 11.5234H7.65562C7.059 11.5234 6.48671 11.7598 6.06462 12.1804C5.64278 12.6011 5.40562 13.1716 5.40562 13.7664V17.5046H2.4058C2.20686 17.5046 2.01603 17.4259 1.87547 17.2857C1.73473 17.1454 1.65574 16.9554 1.65574 16.7571L1.65531 7.74655Z" fill="white"/>
</svg>
