<svg width="24" height="24" viewBox="0 0 24 24" fill="none" xmlns="http://www.w3.org/2000/svg">
<g opacity="0.7">
<path d="M11.9993 2.25C6.812 2.25 2.62353 6.43555 2.62353 11.6228C2.62278 11.861 2.84143 12.0396 3.0747 11.9912L4.94897 11.6177C5.12462 11.5827 5.25101 11.4284 5.25073 11.2493C5.25073 7.7361 8.48609 4.50073 11.9993 4.50073C15.5124 4.50073 18.7515 7.7361 18.7515 11.2493C18.7507 11.4275 18.8758 11.5815 19.0503 11.6177L20.9268 11.9912C21.1592 12.038 21.3762 11.86 21.3757 11.6228C21.3757 6.43555 17.1865 2.25 11.9993 2.25ZM11.9941 11.4324C11.7882 11.4367 11.6237 11.6051 11.6257 11.811V20.8111C11.6257 21.3115 12.3765 21.3115 12.3765 20.8111V11.811C12.3787 11.5996 12.2055 11.4283 11.9941 11.4324ZM5.62426 12.3736C4.59199 12.3736 3.75072 13.2177 3.75072 14.25V19.125C3.75072 20.1573 4.59199 20.9993 5.62426 20.9993C6.65652 20.9993 7.50145 20.1573 7.50145 19.125V14.25C7.50145 13.2177 6.65652 12.3736 5.62426 12.3736ZM18.375 12.3736C17.3427 12.3736 16.5007 13.2177 16.5007 14.25V19.125C16.5007 20.1573 17.3427 20.9993 18.375 20.9993C19.4073 20.9993 20.2485 20.1573 20.2485 19.125V14.25C20.2485 13.2177 19.4073 12.3736 18.375 12.3736H18.375ZM10.1257 13.3118V19.3103C10.1144 19.8216 10.8871 19.8216 10.8757 19.3103V13.3118C10.8795 13.1004 10.7074 12.9173 10.4769 12.9313C10.2649 12.9441 10.1222 13.1188 10.1257 13.3118ZM13.1265 13.3118V19.3103C13.0775 19.8551 13.9225 19.8551 13.8735 19.3103V13.3118C13.8773 13.1004 13.7051 12.9167 13.4751 12.9313C13.2642 12.9441 13.1228 13.1195 13.1265 13.3118ZM2.63452 14.25C2.00587 14.233 1.5 14.7574 1.5 15.3743V17.9986C1.5 18.6153 2.00677 19.125 2.62354 19.125H3V14.25H2.63452ZM20.9993 14.25V19.125H21.3757C21.9925 19.125 22.4993 18.6153 22.4993 17.9986V15.3743C22.4993 14.7575 21.9925 14.25 21.3757 14.25H20.9993ZM14.9949 14.4302C14.7863 14.4316 14.6195 14.604 14.6235 14.8125V17.8133C14.6235 18.3137 15.3743 18.3137 15.3743 17.8133V14.8125C15.3784 14.6008 15.2066 14.4277 14.9949 14.4302ZM8.99341 15.1802C8.78601 15.1844 8.62094 15.3551 8.625 15.5625V18.5633C8.625 19.0638 9.37573 19.0638 9.37573 18.5633V15.5625C9.3799 15.3497 9.20626 15.176 8.99341 15.1802Z" fill="white"/>
</g>
</svg>
