<svg width="22" height="22" viewBox="0 0 22 22" fill="none" xmlns="http://www.w3.org/2000/svg">
<g clip-path="url(#clip0_529_22644)">
<path d="M12.0081 0.916504C9.79138 0.927293 7.64084 1.67314 5.89344 3.03719C4.14603 4.40124 2.90049 6.30643 2.35196 8.45425L1.68096 7.4395C1.61743 7.33327 1.53305 7.24099 1.4329 7.16825C1.33275 7.09551 1.2189 7.04381 1.09822 7.01626C0.977548 6.98871 0.852542 6.98588 0.730745 7.00796C0.608948 7.03003 0.492882 7.07654 0.389548 7.14469C0.286214 7.21283 0.197752 7.3012 0.129497 7.40446C0.0612416 7.50772 0.0146068 7.62374 -0.0075951 7.74551C-0.029797 7.86729 -0.0271061 7.9923 0.000315385 8.113C0.0277369 8.23371 0.0793208 8.34761 0.151957 8.44784L2.16862 11.504C2.30871 11.7 2.51524 11.8385 2.74979 11.8936C2.98929 11.9411 3.23787 11.8934 3.44279 11.7607L6.46779 9.72292C6.57209 9.65779 6.66222 9.57234 6.73281 9.47166C6.8034 9.37097 6.85302 9.25712 6.8787 9.13686C6.90438 9.01661 6.90561 8.89242 6.88231 8.77168C6.859 8.65095 6.81164 8.53614 6.74305 8.43408C6.67446 8.33202 6.58604 8.24481 6.48305 8.17763C6.38005 8.11045 6.2646 8.06468 6.14355 8.04304C6.02251 8.02141 5.89834 8.02434 5.77846 8.05168C5.65857 8.07902 5.54541 8.1302 5.44571 8.20217L4.06979 9.12984C4.43598 7.64336 5.21263 6.28975 6.31112 5.22343C7.40961 4.15712 8.78571 3.42104 10.2824 3.09919C11.7791 2.77734 13.3361 2.88267 14.7759 3.40317C16.2156 3.92366 17.48 4.83837 18.4249 6.04291C19.3698 7.24746 19.957 8.69334 20.1197 10.2156C20.2823 11.7378 20.0138 13.2752 19.3448 14.6522C18.6758 16.0291 17.6331 17.1904 16.3359 18.0033C15.0387 18.8162 13.539 19.2482 12.0081 19.2498C10.6958 19.2463 9.40367 18.9259 8.24168 18.316C7.07968 17.706 6.08215 16.8245 5.33387 15.7463C5.26686 15.6434 5.17985 15.555 5.07801 15.4864C4.97617 15.4178 4.86159 15.3703 4.74105 15.3468C4.62051 15.3233 4.49649 15.3243 4.37633 15.3497C4.25618 15.3751 4.14235 15.4243 4.0416 15.4945C3.94085 15.5648 3.85524 15.6545 3.78985 15.7584C3.72445 15.8624 3.68061 15.9784 3.66092 16.0996C3.64124 16.2208 3.64611 16.3448 3.67524 16.4641C3.70438 16.5834 3.75719 16.6956 3.83054 16.7941C5.04702 18.5478 6.79397 19.8651 8.81465 20.5523C10.8353 21.2395 13.0232 21.2604 15.0566 20.6119C17.09 19.9635 18.8619 18.6798 20.1116 16.9497C21.3614 15.2195 22.0232 13.134 21.9998 10.9998C22.0088 8.33867 20.9619 5.78258 19.0888 3.89227C17.2157 2.00195 14.6693 0.931781 12.0081 0.916504Z" fill="#949493"/>
<path d="M11.9167 5.4541C11.6736 5.4541 11.4404 5.55068 11.2685 5.72259C11.0966 5.8945 11 6.12765 11 6.37077V10.9999C11.0039 11.2422 11.0999 11.474 11.2686 11.648L14.0186 14.4228C14.1912 14.5926 14.4232 14.6883 14.6654 14.6895C14.9075 14.6907 15.1405 14.5973 15.3148 14.4292C15.4873 14.258 15.5849 14.0253 15.5859 13.7822C15.5869 13.5392 15.4914 13.3056 15.3202 13.133L12.8333 10.6232V6.37077C12.8333 6.12765 12.7368 5.8945 12.5648 5.72259C12.3929 5.55068 12.1598 5.4541 11.9167 5.4541Z" fill="#949493"/>
</g>
<defs>
<clipPath id="clip0_529_22644">
<rect width="22" height="22" fill="white"/>
</clipPath>
</defs>
</svg>
