<svg width="16" height="16" viewBox="0 0 16 16" fill="none" xmlns="http://www.w3.org/2000/svg">
<path d="M15.32 14.3221L10.9755 9.97764C11.2715 9.60117 11.5233 9.19458 11.72 8.75646C11.8795 8.4007 11.72 7.98282 11.3642 7.82329C11.008 7.66517 10.5911 7.82329 10.4315 8.17905C10.2094 8.67505 9.89977 9.12352 9.51201 9.51176C6.70401 12.3179 1.87954 10.3198 1.87954 6.34987C1.87954 3.79882 3.99671 1.79035 6.52519 1.88729C7.7313 1.92352 8.81836 2.4214 9.58636 3.2887C9.84519 3.58046 10.2908 3.60823 10.5826 3.3494C10.8744 3.09105 10.9017 2.64493 10.6433 2.35317C9.61413 1.19129 8.16707 0.524463 6.56801 0.476463C3.2033 0.374816 0.467773 3.02376 0.467773 6.34987C0.467773 9.62282 3.11813 12.2294 6.35013 12.2294C7.63436 12.2294 8.91624 11.8092 9.97789 10.9762L14.3219 15.3202C14.5977 15.596 15.0442 15.596 15.32 15.3202C15.5953 15.0445 15.5953 14.5979 15.32 14.3221Z" fill="#B3B3B3"/>
<path d="M13.4092 3.52686C12.4896 3.52686 11.7127 4.1198 11.4209 4.9405H8.72163C8.71551 4.9405 8.70939 4.93862 8.70328 4.93862C8.69716 4.93862 8.69104 4.9405 8.68492 4.9405H6.83928C6.83316 4.9405 6.82751 4.93862 6.82092 4.93862C6.8148 4.93862 6.80869 4.9405 6.80257 4.9405H5.88069C5.49104 4.9405 5.1748 5.25674 5.1748 5.64639C5.1748 6.03603 5.49104 6.35227 5.88069 6.35227H6.11504V7.05627C6.11504 7.44591 6.43128 7.76215 6.82092 7.76215C7.21057 7.76215 7.5268 7.44591 7.5268 7.05627V6.35227H7.99739V7.52686C7.99739 7.9165 8.31363 8.23274 8.70328 8.23274C9.09292 8.23274 9.40916 7.9165 9.40916 7.52686V6.35227H11.4223C11.715 7.17109 12.491 7.76215 13.4092 7.76215C14.5767 7.76215 15.5268 6.8125 15.5268 5.6445C15.5268 4.47697 14.5767 3.52686 13.4092 3.52686ZM13.4092 6.35039C13.0219 6.35039 12.707 6.0365 12.7037 5.65015C12.7037 5.64874 12.7042 5.6478 12.7042 5.64639C12.7042 5.6445 12.7037 5.64262 12.7037 5.64074C12.7056 5.25297 13.0214 4.93862 13.4092 4.93862C13.7983 4.93862 14.115 5.25533 14.115 5.6445C14.115 6.03368 13.7983 6.35039 13.4092 6.35039Z" fill="#B3B3B3"/>
</svg>
