<svg width="27" height="19" viewBox="0 0 27 19" fill="none" xmlns="http://www.w3.org/2000/svg">
<g clip-path="url(#clip0_5600_44332)">
<path d="M19.6921 18.5451C19.4297 18.5451 19.2116 18.4569 19.0378 18.2805C18.8639 18.104 18.777 17.8854 18.777 17.6246V13.3292H14.4815C14.2207 13.3292 14.0021 13.2405 13.8257 13.063C13.6493 12.8856 13.5611 12.6657 13.5611 12.4034C13.5611 12.141 13.6493 11.9229 13.8257 11.7491C14.0021 11.5752 14.2207 11.4883 14.4815 11.4883H18.777V7.19283C18.777 6.93203 18.8657 6.71342 19.0432 6.537C19.2206 6.36058 19.4405 6.27237 19.7028 6.27237C19.9651 6.27237 20.1832 6.36058 20.3571 6.537C20.531 6.71342 20.6179 6.93203 20.6179 7.19283V11.4883H24.9133C25.1741 11.4883 25.3928 11.577 25.5692 11.7544C25.7456 11.9319 25.8338 12.1518 25.8338 12.4141C25.8338 12.6764 25.7456 12.8945 25.5692 13.0684C25.3928 13.2423 25.1741 13.3292 24.9133 13.3292H20.6179V17.6246C20.6179 17.8854 20.5292 18.104 20.3517 18.2805C20.1743 18.4569 19.9544 18.5451 19.6921 18.5451ZM3.43608 13.3292C3.17528 13.3292 2.95668 13.2405 2.78026 13.063C2.60384 12.8856 2.51562 12.6657 2.51562 12.4034C2.51562 12.141 2.60384 11.9229 2.78026 11.7491C2.95668 11.5752 3.17528 11.4883 3.43608 11.4883H10.7997C11.0605 11.4883 11.2791 11.577 11.4555 11.7544C11.632 11.9319 11.7202 12.1518 11.7202 12.4141C11.7202 12.6764 11.632 12.8945 11.4555 13.0684C11.2791 13.2423 11.0605 13.3292 10.7997 13.3292H3.43608ZM3.43608 8.26669C3.17528 8.26669 2.95668 8.17797 2.78026 8.00053C2.60384 7.82306 2.51562 7.60318 2.51562 7.34087C2.51562 7.07854 2.60384 6.86044 2.78026 6.68658C2.95668 6.51271 3.17528 6.42578 3.43608 6.42578H16.0156C16.2764 6.42578 16.495 6.5145 16.6714 6.69195C16.8479 6.86941 16.9361 7.0893 16.9361 7.3516C16.9361 7.61393 16.8479 7.83203 16.6714 8.0059C16.495 8.17976 16.2764 8.26669 16.0156 8.26669H3.43608ZM3.43608 3.20419C3.17528 3.20419 2.95668 3.11547 2.78026 2.93803C2.60384 2.76056 2.51562 2.54068 2.51562 2.27837C2.51562 2.01604 2.60384 1.79794 2.78026 1.62408C2.95668 1.45021 3.17528 1.36328 3.43608 1.36328H16.0156C16.2764 1.36328 16.495 1.452 16.6714 1.62945C16.8479 1.80691 16.9361 2.0268 16.9361 2.2891C16.9361 2.55143 16.8479 2.76953 16.6714 2.94339C16.495 3.11726 16.2764 3.20419 16.0156 3.20419H3.43608Z" fill="white"/>
</g>
<defs>
<clipPath id="clip0_5600_44332">
<rect width="25.3333" height="19" fill="white" transform="translate(0.832031)"/>
</clipPath>
</defs>
</svg>
