<svg width="18" height="18" viewBox="0 0 18 18" fill="none" xmlns="http://www.w3.org/2000/svg">
<path d="M6.50802 12.9371C6.36592 12.9366 6.22926 12.8823 6.12552 12.7852C5.61185 12.2975 5.2028 11.7104 4.92328 11.0596C4.64376 10.4088 4.49961 9.70787 4.49961 8.99957C4.49961 8.29126 4.64376 7.59037 4.92328 6.93956C5.2028 6.28874 5.61185 5.70162 6.12552 5.21394C6.23621 5.12418 6.37685 5.07979 6.51901 5.08972C6.66117 5.09965 6.79427 5.16317 6.8914 5.26745C6.98853 5.37172 7.04247 5.50898 7.04231 5.65149C7.04214 5.794 6.9879 5.93114 6.89052 6.03519C6.49067 6.41846 6.17249 6.87866 5.95513 7.3881C5.73776 7.89754 5.62571 8.44569 5.62571 8.99957C5.62571 9.55344 5.73776 10.1016 5.95513 10.611C6.17249 11.1205 6.49067 11.5807 6.89052 11.9639C6.97277 12.0409 7.03 12.1409 7.0548 12.2508C7.07959 12.3607 7.07081 12.4755 7.0296 12.5803C6.98838 12.6852 6.91663 12.7753 6.82364 12.8389C6.73064 12.9025 6.62069 12.9367 6.50802 12.9371ZM4.25802 14.4446C4.36279 14.3392 4.42159 14.1966 4.42159 14.048C4.42159 13.8994 4.36279 13.7568 4.25802 13.6514C3.62872 13.0511 3.12778 12.3292 2.78551 11.5296C2.44324 10.73 2.26677 9.86933 2.26677 8.99957C2.26677 8.1298 2.44324 7.26908 2.78551 6.46949C3.12778 5.66991 3.62872 4.94808 4.25802 4.34769C4.36693 4.24252 4.42959 4.09839 4.43223 3.94701C4.43487 3.79563 4.37726 3.64941 4.27209 3.5405C4.16691 3.4316 4.02278 3.36893 3.8714 3.3663C3.72003 3.36366 3.5738 3.42127 3.4649 3.52644C2.72393 4.23249 2.13405 5.08165 1.73099 6.02244C1.32794 6.96323 1.12012 7.97607 1.12012 8.99957C1.12012 10.0231 1.32794 11.0359 1.73099 11.9767C2.13405 12.9175 2.72393 13.7666 3.4649 14.4727C3.51902 14.5236 3.5827 14.5633 3.65226 14.5895C3.72182 14.6156 3.79587 14.6278 3.87014 14.6252C3.94441 14.6225 4.01742 14.6052 4.08497 14.5742C4.15251 14.5432 4.21324 14.4992 4.26365 14.4446H4.25802ZM11.8686 12.7852C12.3823 12.2975 12.7914 11.7104 13.0709 11.0596C13.3504 10.4088 13.4946 9.70787 13.4946 8.99957C13.4946 8.29126 13.3504 7.59037 13.0709 6.93956C12.7914 6.28874 12.3823 5.70162 11.8686 5.21394C11.8147 5.16334 11.7514 5.12386 11.6822 5.09774C11.613 5.07163 11.5393 5.0594 11.4654 5.06175C11.3915 5.0641 11.3188 5.08099 11.2514 5.11144C11.184 5.1419 11.1233 5.18533 11.0727 5.23925C11.0221 5.29318 10.9826 5.35654 10.9565 5.42572C10.9304 5.49491 10.9182 5.56855 10.9205 5.64246C10.9229 5.71637 10.9398 5.7891 10.9702 5.85648C11.0007 5.92386 11.0441 5.98459 11.098 6.03519C11.5 6.41721 11.8201 6.877 12.0389 7.38661C12.2576 7.89622 12.3704 8.445 12.3704 8.99957C12.3704 9.55413 12.2576 10.1029 12.0389 10.6125C11.8201 11.1221 11.5 11.5819 11.098 11.9639C10.9894 12.0656 10.9255 12.2061 10.9202 12.3547C10.915 12.5033 10.9688 12.648 11.0699 12.7571C11.123 12.8143 11.1874 12.8599 11.2591 12.8909C11.3307 12.9219 11.4081 12.9376 11.4861 12.9371C11.6283 12.9366 11.7649 12.8823 11.8686 12.7852ZM14.5236 14.4727C15.2668 13.7679 15.8586 12.9192 16.263 11.9782C16.6675 11.0372 16.876 10.0238 16.876 8.99957C16.876 7.97537 16.6675 6.9619 16.263 6.02094C15.8586 5.07998 15.2668 4.23123 14.5236 3.52644C14.413 3.43668 14.2723 3.39229 14.1302 3.40222C13.988 3.41215 13.8549 3.47567 13.7578 3.57995C13.6606 3.68422 13.6067 3.82148 13.6069 3.96399C13.607 4.1065 13.6613 4.24364 13.7586 4.34769C14.388 4.94808 14.8889 5.66991 15.2312 6.46949C15.5734 7.26908 15.7499 8.1298 15.7499 8.99957C15.7499 9.86933 15.5734 10.73 15.2312 11.5296C14.8889 12.3292 14.388 13.0511 13.7586 13.6514C13.6501 13.7531 13.5861 13.8936 13.5809 14.0422C13.5756 14.1908 13.6294 14.3355 13.7305 14.4446C13.783 14.5011 13.8465 14.5463 13.9171 14.5772C13.9878 14.6082 14.064 14.6243 14.1411 14.6246C14.2833 14.6241 14.4199 14.5698 14.5236 14.4727ZM10.1249 8.99957C10.1249 8.77706 10.0589 8.55955 9.9353 8.37455C9.81169 8.18954 9.63599 8.04535 9.43042 7.9602C9.22485 7.87505 8.99865 7.85277 8.78042 7.89618C8.56219 7.93959 8.36174 8.04674 8.2044 8.20407C8.04707 8.3614 7.93992 8.56186 7.89652 8.78009C7.85311 8.99832 7.87539 9.22452 7.96053 9.43008C8.04568 9.63565 8.18988 9.81135 8.37488 9.93497C8.55989 10.0586 8.7774 10.1246 8.9999 10.1246C9.29827 10.1246 9.58442 10.006 9.79539 9.79506C10.0064 9.58408 10.1249 9.29793 10.1249 8.99957Z" fill="white"/>
</svg>
