<svg width="18" height="18" viewBox="0 0 18 18" fill="none" xmlns="http://www.w3.org/2000/svg">
<path d="M17.1017 15.5361H5.06515C4.56907 15.5361 4.16699 15.134 4.16699 14.6379C4.16699 14.1418 4.56907 13.7397 5.06515 13.7397H17.1014C17.5975 13.7397 17.9995 14.1418 17.9995 14.6379C17.9995 15.134 17.5978 15.5361 17.1017 15.5361Z" fill="white"/>
<path d="M17.1017 9.89837H5.06515C4.56907 9.89837 4.16699 9.49629 4.16699 9.00021C4.16699 8.50413 4.56907 8.10205 5.06515 8.10205H17.1014C17.5975 8.10205 17.9995 8.50413 17.9995 9.00021C17.9998 9.49629 17.5978 9.89837 17.1017 9.89837Z" fill="white"/>
<path d="M17.1017 4.26067H5.06515C4.56907 4.26067 4.16699 3.8586 4.16699 3.36251C4.16699 2.86643 4.56907 2.46436 5.06515 2.46436H17.1014C17.5975 2.46436 17.9995 2.86643 17.9995 3.36251C17.9995 3.8586 17.5978 4.26067 17.1017 4.26067Z" fill="white"/>
<path d="M1.20623 4.63804C1.87241 4.63804 2.41245 4.09799 2.41245 3.43181C2.41245 2.76563 1.87241 2.22559 1.20623 2.22559C0.540046 2.22559 0 2.76563 0 3.43181C0 4.09799 0.540046 4.63804 1.20623 4.63804Z" fill="white"/>
<path d="M1.20623 10.2064C1.87241 10.2064 2.41245 9.66635 2.41245 9.00017C2.41245 8.33399 1.87241 7.79395 1.20623 7.79395C0.540046 7.79395 0 8.33399 0 9.00017C0 9.66635 0.540046 10.2064 1.20623 10.2064Z" fill="white"/>
<path d="M1.20623 15.7748C1.87241 15.7748 2.41245 15.2347 2.41245 14.5685C2.41245 13.9024 1.87241 13.3623 1.20623 13.3623C0.540046 13.3623 0 13.9024 0 14.5685C0 15.2347 0.540046 15.7748 1.20623 15.7748Z" fill="white"/>
</svg>
