<svg width="14" height="15" viewBox="0 0 14 15" fill="none" xmlns="http://www.w3.org/2000/svg">
<path d="M13.8717 5.67174L10.6552 2.66716C10.5738 2.59115 10.464 2.54824 10.3494 2.54742L3.7085 2.50001C3.59125 2.49919 3.47881 2.54211 3.39568 2.61975L0.12797 5.67215C-0.0426566 5.83194 -0.0426566 6.09023 0.12797 6.25002L6.69052 12.3802C6.86158 12.5399 7.13853 12.5399 7.30915 12.3802L13.8717 6.25002C14.0428 6.09023 14.0428 5.83154 13.8717 5.67174ZM11.3342 6.25288L8.20516 9.20475C8.03497 9.36536 7.75803 9.36658 7.58609 9.20761C7.41415 9.04863 7.41284 8.78994 7.58303 8.62933L10.4159 5.95782L9.45861 5.00479C9.29104 4.84254 9.29629 4.58344 9.47042 4.42692C9.55529 4.35009 9.66992 4.30963 9.78761 4.3129C9.90573 4.31617 10.0173 4.36398 10.0969 4.44531L11.3429 5.68646C11.5031 5.84666 11.4996 6.09677 11.3342 6.25288Z" fill="#B18A00"/>
</svg>
