<svg width="16" height="16" viewBox="0 0 16 16" fill="none" xmlns="http://www.w3.org/2000/svg">
<path d="M12.445 8.62452L5.32484 15.7443L12.445 8.62452ZM12.445 8.62452C12.6104 8.45919 12.7008 8.2387 12.7002 8.00299L12.445 8.62452ZM9.68298 7.86196L9.8244 8.00338L9.68298 8.1448L3.70405 14.1237L3.70403 14.1238C3.44098 14.3867 3.44094 14.8155 3.70403 15.0786C3.70404 15.0786 3.70405 15.0786 3.70405 15.0786L4.22839 15.6028L4.22847 15.6029C4.35555 15.7301 4.52428 15.8 4.70592 15.8C4.88771 15.8 5.0564 15.7301 5.18331 15.6029L5.18342 15.6028L12.3036 8.4831L12.3036 8.48304C12.431 8.35577 12.5007 8.18657 12.5002 8.00354L12.5002 8.00244C12.5007 7.82057 12.4309 7.65108 12.3036 7.52385L12.3036 7.5238L5.17679 0.397163L5.17667 0.39705C5.04975 0.269925 4.88106 0.2 4.69941 0.2C4.51768 0.2 4.34879 0.269977 4.22207 0.396994L4.22187 0.397196L3.69738 0.921424L3.69736 0.921445C3.57039 1.04832 3.50052 1.21701 3.50052 1.39889C3.50052 1.58069 3.57041 1.74943 3.69725 1.87597L3.69742 1.87614L9.68298 7.86196Z" fill="white" stroke="#161616" stroke-width="0.4"/>
</svg>
