<svg width="24" height="25" viewBox="0 0 24 25" fill="none" xmlns="http://www.w3.org/2000/svg">
<g clip-path="url(#clip0_1931_162)">
<path d="M22.9843 5.15045C22.9843 7.91187 20.7458 10.1503 17.9844 10.1503C15.223 10.1503 12.9844 7.91187 12.9844 5.15045C12.9844 2.38904 15.223 0.150391 17.9844 0.150391C20.7458 0.150391 22.9843 2.38904 22.9843 5.15045Z" fill="#EA3323"/>
<path d="M10.9844 24.1504C8.91748 24.1504 7.23438 22.4684 7.23438 20.4004C7.23438 19.9864 7.57037 19.6504 7.98438 19.6504C8.39838 19.6504 8.73438 19.9864 8.73438 20.4004C8.73438 21.6415 9.74438 22.6504 10.9844 22.6504C12.2244 22.6504 13.2344 21.6415 13.2344 20.4004C13.2344 19.9864 13.5704 19.6504 13.9844 19.6504C14.3984 19.6504 14.7344 19.9864 14.7344 20.4004C14.7344 22.4684 13.0515 24.1504 10.9844 24.1504Z" fill="white"/>
<path d="M19.2343 21.1504H2.73431C1.76935 21.1504 0.984375 20.3654 0.984375 19.4005C0.984375 18.8883 1.2074 18.4034 1.59631 18.0704C1.6214 18.0484 1.64832 18.0284 1.67633 18.0103C3.14429 16.7293 3.98438 14.8864 3.98438 12.9403V10.1503C3.98438 6.29047 7.12537 3.15039 10.9843 3.15039C11.1443 3.15039 11.3174 3.15332 11.4774 3.18042C11.8863 3.24835 12.1624 3.63544 12.0943 4.0434C12.0264 4.45245 11.6314 4.72546 11.2313 4.65936C11.1513 4.64746 11.0634 4.64948 10.9843 4.65039C7.95245 4.65039 5.48438 7.11737 5.48438 10.1503V12.9403C5.48438 15.3564 4.42529 17.6425 2.58142 19.2113C2.56641 19.2234 2.55341 19.2344 2.53729 19.2454C2.51038 19.2794 2.48438 19.3314 2.48438 19.4005C2.48438 19.5363 2.59845 19.6504 2.73431 19.6504H19.2343C19.3704 19.6504 19.4844 19.5363 19.4844 19.4005C19.4844 19.3303 19.4584 19.2794 19.4304 19.2454C19.4154 19.2344 19.4024 19.2234 19.3874 19.2113C17.5424 17.6414 16.4844 15.3564 16.4844 12.9403V11.8505C16.4844 11.4365 16.8204 11.1005 17.2344 11.1005C17.6484 11.1005 17.9844 11.4365 17.9844 11.8505V12.9403C17.9844 14.8875 18.8254 16.7313 20.2954 18.0134C20.3223 18.0314 20.3483 18.0504 20.3723 18.0715C20.7614 18.4034 20.9844 18.8883 20.9844 19.4005C20.9844 20.3654 20.1995 21.1504 19.2343 21.1504Z" fill="white"/>
<path d="M17.9844 10.1503C15.2274 10.1503 12.9844 7.90747 12.9844 5.15045C12.9844 2.39343 15.2274 0.150391 17.9844 0.150391C20.7415 0.150391 22.9843 2.39343 22.9843 5.15045C22.9843 7.90747 20.7415 10.1503 17.9844 10.1503ZM17.9844 1.65039C16.0543 1.65039 14.4844 3.22034 14.4844 5.15045C14.4844 7.08038 16.0543 8.65033 17.9844 8.65033C19.9144 8.65033 21.4843 7.08038 21.4843 5.15045C21.4843 3.22034 19.9144 1.65039 17.9844 1.65039Z" fill="#EA3323"/>
</g>
<defs>
<clipPath id="clip0_1931_162">
<rect width="24" height="24" fill="white" transform="translate(0 0.150391)"/>
</clipPath>
</defs>
</svg>
