<svg width="26" height="26" viewBox="0 0 26 26" fill="none" xmlns="http://www.w3.org/2000/svg">
<g clip-path="url(#clip0_1010_722)">
<path d="M4.32382 3.4502C4.32314 3.4502 4.32238 3.4502 4.32171 3.4502C4.08526 3.4502 3.86287 3.54237 3.69494 3.70988C3.52516 3.87924 3.43164 4.10474 3.43164 4.34481V17.7594C3.43164 18.2513 3.83341 18.6525 4.32735 18.6538C6.40968 18.6587 9.89841 19.0928 12.3052 21.6114V7.5726C12.3052 7.40585 12.2626 7.2492 12.1822 7.11957C10.2068 3.93841 6.41086 3.45508 4.32382 3.4502Z" fill="#C4C4C4"/>
<path d="M22.5678 17.7595V4.34481C22.5678 4.10474 22.4742 3.87924 22.3045 3.70988C22.1365 3.54237 21.914 3.4502 21.6778 3.4502C21.677 3.4502 21.6763 3.4502 21.6756 3.4502C19.5886 3.45516 15.7927 3.9385 13.8172 7.11965C13.7368 7.24928 13.6943 7.40593 13.6943 7.57268V21.6114C16.1011 19.0928 19.5898 18.6587 21.6721 18.6538C22.166 18.6525 22.5678 18.2513 22.5678 17.7595Z" fill="#C4C4C4"/>
<path d="M24.6056 6.54395H23.9569V17.7596C23.9569 19.0155 22.9336 20.0397 21.6757 20.0428C19.9094 20.047 16.9971 20.3924 14.9346 22.3445C18.5018 21.4711 22.2622 22.0389 24.4053 22.5272C24.6729 22.5882 24.9494 22.5252 25.1638 22.3544C25.3775 22.1839 25.5 21.9291 25.5 21.6556V7.43839C25.5001 6.94521 25.0987 6.54395 24.6056 6.54395Z" fill="#C4C4C4"/>
<path d="M2.0431 17.7596V6.54395H1.39445C0.901348 6.54395 0.5 6.94521 0.5 7.43839V21.6554C0.5 21.9289 0.622559 22.1836 0.836196 22.3541C1.05042 22.5249 1.32669 22.5881 1.5947 22.527C3.73781 22.0385 7.49834 21.4708 11.0654 22.3443C9.00289 20.3922 6.09059 20.0469 4.32434 20.0427C3.06651 20.0397 2.0431 19.0155 2.0431 17.7596Z" fill="#C4C4C4"/>
</g>
<defs>
<clipPath id="clip0_1010_722">
<rect width="25" height="25" fill="white" transform="translate(0.5 0.5)"/>
</clipPath>
</defs>
</svg>
