<svg width="26" height="26" viewBox="0 0 26 26" fill="none" xmlns="http://www.w3.org/2000/svg">
<path d="M25 13C25 19.6274 19.6274 25 13 25C6.37247 25 1 19.6274 1 13C1 6.37246 6.37247 1 13 1C19.6274 1 25 6.37246 25 13Z" fill="#4A2F13" fill-opacity="0.5" stroke="#C4690C" stroke-miterlimit="10" stroke-linecap="round" stroke-linejoin="round"/>
<path d="M17.8007 11.3992C17.8007 14.0502 15.6518 16.1992 13.0007 16.1992C10.3496 16.1992 8.20068 14.0502 8.20068 11.3992C8.20068 8.74831 10.3496 6.59927 13.0007 6.59927C15.6518 6.59927 17.8007 8.74831 17.8007 11.3992Z" stroke="#C4690C" stroke-miterlimit="10" stroke-linecap="round" stroke-linejoin="round"/>
<path d="M5.8418 22.6288C6.2257 19.0138 9.28455 16.1977 13.0013 16.1977C16.7182 16.1977 19.777 19.014 20.1607 22.6289" stroke="#C4690C" stroke-miterlimit="10" stroke-linecap="round" stroke-linejoin="round"/>
</svg>
