<svg width="24" height="25" viewBox="0 0 24 25" fill="none" xmlns="http://www.w3.org/2000/svg">
<path d="M24 12.1504C24 18.7778 18.6274 24.1504 12 24.1504C5.37258 24.1504 0 18.7778 0 12.1504C0 5.52297 5.37258 0.150391 12 0.150391C18.6274 0.150391 24 5.52297 24 12.1504ZM1.44301 12.1504C1.44301 17.9809 6.16953 22.7074 12 22.7074C17.8305 22.7074 22.557 17.9809 22.557 12.1504C22.557 6.31992 17.8305 1.5934 12 1.5934C6.16953 1.5934 1.44301 6.31992 1.44301 12.1504Z" fill="white"/>
<path d="M7.5875 9.25C7.5875 11.6827 9.56727 13.6625 12 13.6625C14.4327 13.6625 16.4125 11.6827 16.4125 9.25C16.4125 6.81727 14.4327 4.8375 12 4.8375C9.56727 4.8375 7.5875 6.81727 7.5875 9.25ZM8.9125 9.25C8.9125 7.55023 10.3002 6.1625 12 6.1625C13.6998 6.1625 15.0875 7.55023 15.0875 9.25C15.0875 10.9498 13.6998 12.3375 12 12.3375C10.3002 12.3375 8.9125 10.9498 8.9125 9.25Z" fill="white" stroke="white" stroke-width="0.2"/>
<path d="M17.9 21.5C17.9 21.5206 17.9005 21.5392 17.902 21.555C17.9032 21.5674 17.9057 21.5906 17.916 21.6123C17.9212 21.6233 17.9346 21.6474 17.9638 21.6626C17.9988 21.6808 18.0336 21.6751 18.0564 21.6646C18.0756 21.6557 18.088 21.6431 18.0938 21.6368C18.1005 21.6294 18.1057 21.622 18.1095 21.6163C18.1231 21.5956 18.1373 21.5655 18.1496 21.5389C18.153 21.5317 18.1564 21.5243 18.1599 21.5167C18.1708 21.493 18.1826 21.4676 18.1958 21.4405C18.2311 21.3683 18.2723 21.2943 18.3195 21.2393C18.3679 21.183 18.4088 21.1625 18.4426 21.1625C18.8053 21.1625 19.1051 20.8627 19.1051 20.5C19.1051 17.2256 15.8996 14.5875 12.0001 14.5875C8.10063 14.5875 4.89512 17.2256 4.89512 20.5C4.89512 20.8627 5.19489 21.1625 5.55762 21.1625C5.59142 21.1625 5.63224 21.183 5.68062 21.2393C5.72786 21.2942 5.76903 21.3683 5.80426 21.4404C5.81751 21.4676 5.82926 21.493 5.84019 21.5167C5.84368 21.5243 5.84708 21.5317 5.85042 21.5388C5.86278 21.5654 5.87694 21.5955 5.8905 21.6162C5.89428 21.622 5.89953 21.6294 5.90622 21.6368C5.91194 21.643 5.92433 21.6557 5.94357 21.6646C5.96637 21.6751 6.00125 21.6808 6.03624 21.6626C6.06545 21.6473 6.07881 21.6232 6.08398 21.6123C6.09426 21.5906 6.09683 21.5674 6.09798 21.555C6.09946 21.5392 6.1 21.5206 6.1 21.5C6.1 20.2394 6.77417 18.8416 7.85588 17.7565C8.93647 16.6726 10.4123 15.9125 12.0001 15.9125C13.588 15.9125 15.0637 16.6726 16.1443 17.7565C17.2259 18.8416 17.9 20.2394 17.9 21.5Z" fill="white" stroke="white" stroke-width="0.2"/>
</svg>
