<svg width="24" height="24" viewBox="0 0 24 24" fill="none" xmlns="http://www.w3.org/2000/svg">
<path d="M12 23C11.6353 23 11.2856 22.8868 11.0277 22.6854C10.7699 22.4839 10.625 22.2107 10.625 21.9258V2.07422C10.625 1.78932 10.7699 1.51609 11.0277 1.31463C11.2856 1.11318 11.6353 1 12 1C12.3647 1 12.7144 1.11318 12.9723 1.31463C13.2301 1.51609 13.375 1.78932 13.375 2.07422V21.9258C13.375 22.2107 13.2301 22.4839 12.9723 22.6854C12.7144 22.8868 12.3647 23 12 23Z" fill="white"/>
<path d="M21.9258 13.375H2.07422C1.78932 13.375 1.51609 13.2301 1.31463 12.9723C1.11318 12.7144 1 12.3647 1 12C1 11.6353 1.11318 11.2856 1.31463 11.0277C1.51609 10.7699 1.78932 10.625 2.07422 10.625H21.9258C22.2107 10.625 22.4839 10.7699 22.6854 11.0277C22.8868 11.2856 23 11.6353 23 12C23 12.3647 22.8868 12.7144 22.6854 12.9723C22.4839 13.2301 22.2107 13.375 21.9258 13.375Z" fill="white"/>
</svg>
