<svg width="12" height="12" viewBox="0 0 12 12" fill="none" xmlns="http://www.w3.org/2000/svg">
<g clip-path="url(#clip0_299_7949)">
<path d="M11.8558 3.43674L8.50976 0.0906844C8.38897 -0.0302281 8.19284 -0.0302281 8.07205 0.0906844L8.05787 0.104862C7.8527 0.309974 7.73965 0.582817 7.73965 0.872932C7.73965 1.05984 7.78714 1.2392 7.87536 1.39825L4.37428 4.40298C4.10633 4.16351 3.76433 4.03245 3.40209 4.03245C3.01174 4.03245 2.64479 4.18444 2.36885 4.46044L2.34787 4.48143C2.22695 4.60228 2.22695 4.79829 2.34787 4.91914L4.35243 6.9237L2.40012 8.87595C2.36105 8.91613 1.43697 9.86838 0.829432 10.6262C0.250872 11.3476 0.13646 11.4798 0.130516 11.4866C0.0231003 11.609 0.0290438 11.7934 0.144013 11.909C0.204252 11.9695 0.283685 12 0.363364 12C0.435986 12 0.508794 11.9747 0.567362 11.9235C0.5725 11.919 0.701647 11.8068 1.4278 11.2245C2.18547 10.617 3.13773 9.69286 3.181 9.6507L5.13016 7.70155L7.02736 9.59876C7.08779 9.65925 7.16703 9.68946 7.24622 9.68946C7.3254 9.68946 7.40471 9.65925 7.46507 9.59876L7.48606 9.57777C7.76206 9.30183 7.91405 8.93482 7.91405 8.54454C7.91405 8.18229 7.78293 7.84029 7.54352 7.57234L10.5483 4.07127C10.7073 4.15949 10.8867 4.20697 11.0736 4.20697C11.3637 4.20697 11.6365 4.09399 11.8416 3.88875L11.8558 3.87457C11.9767 3.7536 11.9767 3.55759 11.8558 3.43674Z" fill="#C4690C"/>
</g>
<defs>
<clipPath id="clip0_299_7949">
<rect width="12" height="12" fill="white"/>
</clipPath>
</defs>
</svg>
