<svg width="15" height="19" viewBox="0 0 15 19" fill="none" xmlns="http://www.w3.org/2000/svg">
<path d="M12.7383 18.2296C12.3207 18.2296 11.9148 18.0818 11.5953 17.8134L7.653 14.5017L3.71037 17.8135C3.39104 18.0818 2.98518 18.2296 2.56775 18.2296C2.30699 18.2296 2.05501 18.1739 1.81826 18.0639C1.19512 17.7742 0.79248 17.1431 0.79248 16.4563V3.99629C0.79248 3.16205 1.11781 2.37768 1.7083 1.78754C2.29893 1.19754 3.08415 0.872559 3.9193 0.872559H11.3864C12.2217 0.872559 13.0069 1.19754 13.5976 1.78739C14.1882 2.37739 14.5134 3.16176 14.5134 3.99615V16.4561C14.5134 17.143 14.1107 17.774 13.4875 18.0638C13.2511 18.1739 12.999 18.2296 12.7383 18.2296ZM7.653 13.1522C7.78697 13.1522 7.92109 13.198 8.03002 13.2894L12.3494 16.9179C12.526 17.0662 12.7836 17.1004 12.9932 17.0031C13.2053 16.9046 13.3422 16.6898 13.3422 16.4561V3.99629C13.3422 3.47445 13.1388 2.98391 12.7694 2.61491C12.4 2.2459 11.909 2.04261 11.3866 2.04261H3.91944C3.39719 2.04261 2.90611 2.2459 2.53671 2.61491C2.16731 2.98391 1.96379 3.47445 1.96379 3.99629V16.4563C1.96379 16.69 2.10069 16.9046 2.3127 17.0031C2.52222 17.1007 2.78005 17.0662 2.95633 16.918L7.27584 13.2894C7.38492 13.198 7.51903 13.1522 7.653 13.1522Z" fill="#B3B3B3"/>
</svg>
