<svg width="24" height="24" viewBox="0 0 24 24" fill="none" xmlns="http://www.w3.org/2000/svg">
<g clip-path="url(#clip0_597_15929)">
<path d="M17.4269 15.6487C16.3815 15.6487 15.4357 16.085 14.7593 16.7854L9.08488 13.2435C9.22121 12.8543 9.29609 12.4361 9.29609 12.0005C9.29609 11.5648 9.22122 11.1466 9.08489 10.7574L14.7593 7.21545C15.4357 7.9158 16.3815 8.35229 17.4269 8.35229C19.4811 8.35229 21.15 6.66867 21.15 4.6013C21.15 2.53393 19.4811 0.850488 17.4269 0.850488C15.3727 0.850488 13.7037 2.5341 13.7037 4.60147C13.7037 5.03708 13.7788 5.45528 13.915 5.84451L8.24073 9.38634C7.56431 8.68599 6.61851 8.24951 5.57313 8.24951C3.51892 8.24951 1.85 9.93329 1.85 12.0005C1.85 14.0679 3.51892 15.7515 5.57313 15.7515C6.6185 15.7515 7.56431 15.3152 8.24074 14.6146L13.915 18.1565C13.7788 18.5457 13.7037 18.9639 13.7037 19.3997C13.7037 21.4669 15.3727 23.1505 17.4269 23.1505C19.4811 23.1505 21.15 21.4669 21.15 19.3997C21.15 17.3323 19.4811 15.6487 17.4269 15.6487ZM15.3067 4.60147C15.3067 3.42168 16.259 2.46355 17.4269 2.46355C18.5947 2.46355 19.5471 3.42168 19.5471 4.60147C19.5471 5.78126 18.5947 6.73939 17.4269 6.73939C16.259 6.73939 15.3067 5.78126 15.3067 4.60147ZM5.57313 14.1384C4.40512 14.1384 3.45274 13.1803 3.45274 12.0005C3.45274 10.8207 4.40512 9.86257 5.57313 9.86257C6.74095 9.86257 7.69318 10.8207 7.69318 12.0005C7.69318 13.1803 6.74095 14.1384 5.57313 14.1384ZM15.3067 19.3995C15.3067 18.2197 16.259 17.2616 17.4269 17.2616C18.5947 17.2616 19.5471 18.2197 19.5471 19.3995C19.5471 20.5793 18.5947 21.5374 17.4269 21.5374C16.259 21.5374 15.3067 20.5793 15.3067 19.3995Z" fill="#B3B3B3" stroke="#B3B3B3" stroke-width="0.3"/>
</g>
<defs>
<clipPath id="clip0_597_15929">
<rect width="24" height="24" fill="white" transform="translate(0 0.000488281)"/>
</clipPath>
</defs>
</svg>
