<svg width="19" height="18" viewBox="0 0 19 18" fill="none" xmlns="http://www.w3.org/2000/svg">
<path d="M18.28 16.7197L13.1613 11.601C14.1529 10.3763 14.7498 8.82 14.7498 7.12501C14.7498 3.19651 11.5534 0 7.6249 0C3.69644 0 0.5 3.19648 0.5 7.12498C0.5 11.0535 3.69648 14.25 7.62493 14.25C9.3199 14.25 10.8761 13.653 12.1009 12.6615L17.2196 17.7802C17.3658 17.9265 17.5578 18 17.7498 18C17.9418 18 18.1338 17.9265 18.2801 17.7802C18.5733 17.487 18.5733 17.013 18.28 16.7197ZM7.62493 12.75C4.52296 12.75 2 10.227 2 7.12498C2 4.02296 4.52296 1.49998 7.62493 1.49998C10.7269 1.49998 13.2499 4.02296 13.2499 7.12498C13.2499 10.227 10.7269 12.75 7.62493 12.75Z" fill="white"/>
</svg>
