<svg width="24" height="24" viewBox="0 0 24 24" fill="none" xmlns="http://www.w3.org/2000/svg">
<path fill-rule="evenodd" clip-rule="evenodd" d="M12 3.00049C7.02944 3.00049 3 7.02993 3 12.0005C3 16.9711 7.02944 21.0005 12 21.0005C16.9706 21.0005 21 16.9711 21 12.0005C21 7.02993 16.9706 3.00049 12 3.00049ZM1 12.0005C1 5.92536 5.92487 1.00049 12 1.00049C18.0751 1.00049 23 5.92536 23 12.0005C23 18.0756 18.0751 23.0005 12 23.0005C5.92487 23.0005 1 18.0756 1 12.0005Z" fill="#B3B3B3"/>
<path fill-rule="evenodd" clip-rule="evenodd" d="M12 10.0005C10.8954 10.0005 10 10.8959 10 12.0005C10 13.1051 10.8954 14.0005 12 14.0005C13.1046 14.0005 14 13.1051 14 12.0005C14 10.8959 13.1046 10.0005 12 10.0005ZM8 12.0005C8 9.79135 9.79086 8.00049 12 8.00049C14.2091 8.00049 16 9.79135 16 12.0005C16 14.2096 14.2091 16.0005 12 16.0005C9.79086 16.0005 8 14.2096 8 12.0005Z" fill="#B3B3B3"/>
</svg>
