<svg width="24" height="24" viewBox="0 0 24 24" fill="none" xmlns="http://www.w3.org/2000/svg">
<path d="M21.1742 11.7534C19.2914 7.9176 15.7781 5.53857 12.0003 5.53857C8.22246 5.53857 4.7092 7.9176 2.82643 11.7534C2.78895 11.8307 2.76953 11.9149 2.76953 12.0001C2.76953 12.0853 2.78895 12.1695 2.82643 12.2468C4.7092 16.112 8.22246 18.4617 12.0003 18.4617C15.7781 18.4617 19.2914 16.112 21.1742 12.2468C21.2117 12.1695 21.2311 12.0853 21.2311 12.0001C21.2311 11.9149 21.2117 11.8307 21.1742 11.7534ZM12.0003 17.2868C8.78852 17.2868 5.77364 15.2661 4.0693 12.0001C5.77364 8.7341 8.78852 6.7134 12.0003 6.7134C15.2121 6.7134 18.227 8.7341 19.9313 12.0001C18.227 15.2661 15.2121 17.2868 12.0003 17.2868Z" fill="#B3B3B3" stroke="#B3B3B3" stroke-width="0.6"/>
<path d="M11.9999 8.30762C11.2697 8.30762 10.5558 8.52417 9.94859 8.92988C9.34139 9.3356 8.86814 9.91226 8.58868 10.5869C8.30922 11.2616 8.2361 12.004 8.37857 12.7203C8.52103 13.4365 8.87269 14.0944 9.38907 14.6108C9.90545 15.1272 10.5634 15.4788 11.2796 15.6213C11.9958 15.7638 12.7382 15.6906 13.4129 15.4112C14.0876 15.1317 14.6643 14.6585 15.07 14.0513C15.4757 13.4441 15.6922 12.7302 15.6922 11.9999C15.6922 11.0207 15.3032 10.0815 14.6108 9.38907C13.9183 8.69663 12.9792 8.30762 11.9999 8.30762ZM11.9999 14.4615C11.5131 14.4615 11.0372 14.3171 10.6324 14.0466C10.2276 13.7761 9.91207 13.3917 9.72576 12.9419C9.53945 12.4921 9.49071 11.9972 9.58569 11.5197C9.68066 11.0422 9.9151 10.6036 10.2594 10.2594C10.6036 9.9151 11.0422 9.68066 11.5197 9.58568C11.9972 9.4907 12.4921 9.53945 12.9419 9.72576C13.3917 9.91207 13.7761 10.2276 14.0466 10.6324C14.3171 11.0372 14.4615 11.5131 14.4615 11.9999C14.4615 12.6528 14.2021 13.2789 13.7405 13.7405C13.2789 14.2021 12.6528 14.4615 11.9999 14.4615Z" fill="#B3B3B3" stroke="#B3B3B3" stroke-width="0.6"/>
</svg>
