<svg width="16" height="15" viewBox="0 0 16 15" fill="none" xmlns="http://www.w3.org/2000/svg">
<path d="M11.7471 5.91345H8.24707C7.97374 5.91345 7.74707 5.68679 7.74707 5.41345C7.74707 5.14012 7.97374 4.91345 8.24707 4.91345H11.7471C12.0204 4.91345 12.2471 5.14012 12.2471 5.41345C12.2471 5.68679 12.0271 5.91345 11.7471 5.91345Z" fill="#B3B3B3"/>
<path d="M4.74638 6.42011C4.61971 6.42011 4.49305 6.37344 4.39305 6.27344L3.89305 5.77342C3.69971 5.58009 3.69971 5.26009 3.89305 5.06675C4.08638 4.87342 4.40638 4.87342 4.59971 5.06675L4.74638 5.21342L5.89305 4.06675C6.08638 3.87342 6.40638 3.87342 6.59971 4.06675C6.79307 4.26009 6.79307 4.58009 6.59971 4.77342L5.09971 6.27344C5.00638 6.36677 4.87971 6.42011 4.74638 6.42011Z" fill="#B3B3B3"/>
<path d="M11.7471 10.5801H8.24707C7.97374 10.5801 7.74707 10.3534 7.74707 10.0801C7.74707 9.80674 7.97374 9.58008 8.24707 9.58008H11.7471C12.0204 9.58008 12.2471 9.80674 12.2471 10.0801C12.2471 10.3534 12.0271 10.5801 11.7471 10.5801Z" fill="#B3B3B3"/>
<path d="M4.74638 11.0868C4.61971 11.0868 4.49305 11.0402 4.39305 10.9402L3.89305 10.4402C3.69971 10.2468 3.69971 9.92683 3.89305 9.7335C4.08638 9.54017 4.40638 9.54017 4.59971 9.7335L4.74638 9.88017L5.89305 8.7335C6.08638 8.54017 6.40638 8.54017 6.59971 8.7335C6.79307 8.92683 6.79307 9.24683 6.59971 9.44017L5.09971 10.9402C5.00638 11.0335 4.87971 11.0868 4.74638 11.0868Z" fill="#B3B3B3"/>
<path d="M10.0002 14.6667H6.00016C2.38016 14.6667 0.833496 13.12 0.833496 9.50004V5.50004C0.833496 1.88004 2.38016 0.333374 6.00016 0.333374H10.0002C13.6202 0.333374 15.1668 1.88004 15.1668 5.50004V9.50004C15.1668 13.12 13.6202 14.6667 10.0002 14.6667ZM6.00016 1.33337C2.92683 1.33337 1.8335 2.42671 1.8335 5.50004V9.50004C1.8335 12.5734 2.92683 13.6667 6.00016 13.6667H10.0002C13.0735 13.6667 14.1668 12.5734 14.1668 9.50004V5.50004C14.1668 2.42671 13.0735 1.33337 10.0002 1.33337H6.00016Z" fill="#B3B3B3"/>
</svg>
